Simulation
nRows=39
nColumns=15
endheader
time  TH_x TH_y TH_z SC_y  SC_z  SC_x  AC_y  AC_z  AC_x  GH_y  GH_z  GH_yy  EL_x  PS_y
0.595  0.000000  0.000000  0.000000  -37.29345189482431  3.3219869470497128  5.113882251044197  55.97330031281281  8.447144460596636  -6.79641144669126  -3.722293441398956  35.61203619834323  7.036782312828466  24.37185066817304  0.000000
0.6069  0.000000  0.000000  0.000000  -37.44507555538203  3.4139783581241354  5.264832961147753  56.070832657255664  8.618519960339565  -6.724576583922561  -3.326434837321358  36.37605004285503  6.400723065380942  24.224501452301283  0.000000
0.6187999999999999  0.000000  0.000000  0.000000  -37.60110295488333  3.5104653880020154  5.417010902530864  56.169082383457216  8.793890961853702  -6.6468121214151985  -2.9254375439543843  37.12097945792099  5.786452725127766  24.07000096671096  0.000000
0.6306999999999999  0.000000  0.000000  0.000000  -37.76369489575468  3.6110053182753488  5.571633554049973  56.268211363831085  8.972673860469076  -6.563691057487167  -2.5222004846614623  37.84699704047346  5.196427449742352  23.909317417610765  0.000000
0.6426  0.000000  0.000000  0.000000  -37.93169184791169  3.7152955463645614  5.729411345103747  56.36880866886619  9.153961530355916  -6.4753657954292025  -2.1186632038098847  38.55413611772856  4.631399336588725  23.743053077571506  0.000000
0.6545  0.000000  0.000000  0.000000  -38.10803216200145  3.8232637807816126  5.888751096147254  56.471115620292494  9.339619528896545  -6.380250402481319  -1.7163657377965904  39.24260041015344  4.091955715994895  23.572073360764477  0.000000
0.6664  0.000000  0.000000  0.000000  -38.29121340505509  3.9340982274769356  6.046591507431481  56.57548013651744  9.532746655109023  -6.277173903964668  -1.3174063203558863  39.91246226467312  3.5795731905151924  23.39721722999322  0.000000
0.6782999999999999  0.000000  0.000000  0.000000  -38.482541068570875  4.047670145811449  6.203745316755857  56.681854261883  9.733499427443283  -6.166742398309449  -0.9243190911525678  40.56332886852001  3.095396675557646  23.21925695148674  0.000000
0.6901999999999999  0.000000  0.000000  0.000000  -38.6804962073816  4.162292605746218  6.360776933240091  56.79087949476753  9.941659562523473  -6.050014936292944  -0.5394398218249852  41.19531228009272  2.6419536464798035  23.03918117471768  0.000000
0.7021  0.000000  0.000000  0.000000  -38.886819023664046  4.277167736415865  6.516334624672958  56.902986296608894  10.158526077876676  -5.927165090989938  -0.16481999887353793  41.808008632520504  2.219772461355083  22.857940161360567  0.000000
0.714  0.000000  0.000000  0.000000  -39.09882187239306  4.391246052023614  6.668834238352167  57.017438116869236  10.385056358961204  -5.797216752015369  0.19657831905013978  42.40041477270548  1.829169488655228  22.676785969669247  0.000000
0.7259  0.000000  0.000000  0.000000  -39.31785576852488  4.5039512002424535  6.819589228738923  57.13356510552668  10.62084011414184  -5.659847105838869  0.5416767793498494  42.971809009050446  1.4719538663898077  22.496970945228504  0.000000
0.7377999999999999  0.000000  0.000000  0.000000  -39.540537546599126  4.616469192256912  6.968949552331479  57.25191940941002  10.864914462353202  -5.51569922231757  0.8684541980722709  43.52111543820641  1.1477113236686776  22.318839957831045  0.000000
0.7496999999999999  0.000000  0.000000  0.000000  -39.76773530377614  4.730663825837709  7.117135678769535  57.37204181612667  11.116651795404676  -5.364903753241079  1.1764688996912802  44.04834649564772  0.8552475881330379  22.143061943921076  0.000000
0.7615999999999999  0.000000  0.000000  0.000000  -39.9970880465592  4.846904091767212  7.264072934568529  57.49277979711737  11.375469437827494  -5.206744519357511  1.4649899886142141  44.55401813339876  0.5937305021202088  21.971087156591146  0.000000
0.7735  0.000000  0.000000  0.000000  -40.23004328246535  4.966024923437681  7.410581171598046  57.61383582191204  11.640769908019697  -5.04140788960159  1.7330628496159854  45.038791827804936  0.3619363814593982  21.803772544224607  0.000000
0.7854  0.000000  0.000000  0.000000  -40.46420036052257  5.088301910354667  7.556901897652979  57.73489052676187  11.911805542691834  -4.8689788961567455  1.9795537376649561  45.503489636619996  0.15936447245252797  21.642043746356297  0.000000
0.7972999999999999  0.000000  0.000000  0.000000  -40.701283879480265  5.2143844407875095  7.704378109355368  57.855600578652876  12.18768895856215  -4.689453636486888  2.203303990297132  45.94895760959714  -0.015128085040064633  21.48677369273872  0.000000
0.8091999999999999  0.000000  0.000000  0.000000  -40.939160948419705  5.344279151033998  7.853620338358442  57.976063878655125  12.46740510076407  -4.50327640131893  2.4034113541436573  46.37619618099655  -0.1629317572999984  21.33857820158659  0.000000
0.8210999999999999  0.000000  0.000000  0.000000  -41.17975896017471  5.478531602247697  8.006400598559736  58.09606598863579  12.749707565111777  -4.310726238326778  2.578998617420578  46.786162622372544  -0.28525822574991033  21.19818813702531  0.000000
0.833  0.000000  0.000000  0.000000  -41.42101427038242  5.617063278972988  8.163553109508893  58.21564542577532  13.033267181456884  -4.112417494565948  2.7295489949585137  47.17986612137361  -0.3839250181686389  21.066191116851193  0.000000
0.8449  0.000000  0.000000  0.000000  -41.665163627938405  5.7601590337562705  8.32707722324732  58.334803877567005  13.316564121290872  -3.9089920087769943  2.8547977412916277  47.55836218809151  -0.4606230117291259  20.943130495443583  0.000000
0.8567999999999999  0.000000  0.000000  0.000000  -41.91065116950189  5.9072581261888235  8.498163447513932  58.4537951854701  13.597845266756645  -3.7013216464638186  2.9549191133940087  47.92286869222104  -0.5174837423250663  20.829523704006135  0.000000
0.8686999999999999  0.000000  0.000000  0.000000  -42.159982530226884  6.058519929159333  8.679629795407159  58.57287094390068  13.874770421573148  -3.4904855001735586  3.0301275369096903  48.27439305424012  -0.5561809877482106  20.725731384482316  0.000000
0.8805999999999999  0.000000  0.000000  0.000000  -42.411078107997625  6.213587841090262  8.8731281427295  58.69255890470897  14.144940768677426  -3.277937341575807  3.0804841896642157  48.61389423514248  -0.5781995703303775  20.63180770069656  0.000000
0.8925  0.000000  0.000000  0.000000  -42.66555998566043  6.372169222179443  9.08082916969976  58.813009909721366  14.406710490820544  -3.0649535422329617  3.1057649142968833  48.94207020837339  -0.5842769568490918  20.54811249345112  0.000000
0.9044  0.000000  0.000000  0.000000  -42.921078453368295  6.5329921433906755  9.302565283403474  58.934421772146166  14.659607402499562  -2.852301781476516  3.1069957995653055  49.25937966769109  -0.5763579634744447  20.474831122537683  0.000000
0.9162999999999999  0.000000  0.000000  0.000000  -43.180073036511644  6.695949978501859  9.539497682008289  59.05718045642307  14.902641527161714  -2.640735652050438  3.0872567996551883  49.56570876547488  -0.5578553346691265  20.411581164037944  0.000000
0.9281999999999999  0.000000  0.000000  0.000000  -43.44017188602986  6.860285022744979  9.792700242928655  59.18141565815057  15.133800343976846  -2.432109267555268  3.0502220144914185  49.86054178034144  -0.532008734177343  20.35835901221474  0.000000
0.9400999999999999  0.000000  0.000000  0.000000  -43.70209003801257  7.025297789310121  10.06411602362941  59.30697411297005  15.351515795948718  -2.2287416401749285  2.9987510149290664  50.14284191968789  -0.5007690563641837  20.315201695060573  0.000000
0.952  0.000000  0.000000  0.000000  -43.96148815766572  7.1894021436267135  10.354246857930661  59.43363096152893  15.553942747150986  -2.0331304463558144  2.9356416408403296  50.41138077401741  -0.46596324207217066  20.28164856649282  0.000000
0.9639  0.000000  0.000000  0.000000  -44.21793221447143  7.352085753434646  10.66487776900208  59.56118135318481  15.738776071275437  -1.8478447465043297  2.8638783865328907  50.66412064179492  -0.4290819681125837  20.25690939969447  0.000000
0.9757999999999999  0.000000  0.000000  0.000000  -44.46642299531713  7.512231844188255  10.99569635716362  59.68898002069513  15.903654572402695  -1.6751095646653626  2.787208418159905  50.898868685467775  -0.3915678979560486  20.240270456812414  0.000000
0.9876999999999999  0.000000  0.000000  0.000000  -44.70626625830528  7.669303417097596  11.346326587234243  59.81640402985216  16.047201312813865  -1.5168337831821663  2.710005974781498  51.11271242973964  -0.35504275012239517  20.230769941013797  0.000000
0.9995999999999999  0.000000  0.000000  0.000000  -44.931628111003356  7.821058740481938  11.714300214632932  59.942692537561065  16.168426874847135  -1.3753379045457634  2.63694581397909  51.30275496349724  -0.3216481887818579  20.226949016398432  0.000000
1.0114999999999998  0.000000  0.000000  0.000000  -45.14053762186545  7.966127897103702  12.098417107226796  60.06649460282212  16.266577834544997  -1.2527281127303393  2.5727189324115964  51.464845458360735  -0.29231572033875997  20.22712010519083  0.000000
1.0233999999999999  0.000000  0.000000  0.000000  -45.32654848833656  8.103401742108776  12.494747339725775  60.18645866659814  16.340896470394476  -1.1520006455992884  2.522640826681814  51.59455109373487  -0.26765675916022874  20.23042317605051  0.000000
1.0352999999999999  0.000000  0.000000  0.000000  -45.48829883930008  8.23165339978012  12.90018690210188  60.30149763052252  16.392092951555245  -1.075846087111141  2.4924605670755877  51.68599657991166  -0.24771625358338195  20.23593513629772  0.000000
1.0472  0.000000  0.000000  0.000000  -45.62017555151329  8.347330890994883  13.308142274519836  60.410293645515644  16.422220411908057  -1.0270584782304708  2.4895765074720506  51.733619785401736  -0.2344192117202278  20.241996598301125  0.000000
